<svg width="195" height="33" viewBox="0 0 195 33" fill="none" xmlns="http://www.w3.org/2000/svg">
<path d="M56.1405 25.7883V19.7169L56.3961 20.4838L49.3682 9.04408H50.7098L57.0988 19.4613H56.4599L62.8489 9.04408H64.1267L57.0988 20.4838L57.3544 19.7169V25.7883H56.1405Z" fill="#6B4F25"/>
<path d="M81.504 25.8522C80.2901 25.8522 79.0762 25.6605 78.0539 25.2131C76.9678 24.7657 76.0733 24.1906 75.3066 23.4237C74.54 22.6567 73.9011 21.762 73.4538 20.7395C73.0066 19.7169 72.8149 18.5666 72.8149 17.3523C72.8149 16.138 73.0066 14.9876 73.4538 13.9651C73.9011 12.9425 74.4761 12.0478 75.3066 11.2809C76.0733 10.514 77.0317 9.93879 78.0539 9.49143C79.14 9.04406 80.2901 8.85233 81.504 8.85233C82.7179 8.85233 83.9318 9.04406 84.954 9.49143C86.0401 9.93879 86.9346 10.514 87.7013 11.2809C88.468 12.0478 89.1069 12.9425 89.5541 13.9651C90.0013 14.9876 90.193 16.138 90.193 17.3523C90.193 18.5666 90.0013 19.7169 89.5541 20.7395C89.1069 21.762 88.5319 22.6567 87.7013 23.4237C86.9346 24.1906 85.9763 24.7657 84.954 25.2131C83.8679 25.6605 82.7179 25.8522 81.504 25.8522ZM81.504 24.7657C82.5901 24.7657 83.5484 24.574 84.4429 24.1906C85.3374 23.8071 86.1679 23.2958 86.8068 22.6567C87.4457 22.0176 88.0207 21.1868 88.4041 20.2921C88.7874 19.3974 88.9791 18.4387 88.9791 17.3523C88.9791 16.2658 88.7874 15.3072 88.4041 14.4124C88.0207 13.5177 87.5096 12.7508 86.8068 12.0478C86.1679 11.4087 85.3374 10.8335 84.4429 10.514C83.5484 10.1305 82.5262 9.93879 81.504 9.93879C80.4817 9.93879 79.4595 10.1305 78.565 10.514C77.6706 10.8974 76.84 11.4087 76.2011 12.0478C75.4983 12.6869 74.9872 13.5177 74.6039 14.4124C74.2205 15.3072 74.0288 16.2658 74.0288 17.3523C74.0288 18.4387 74.2205 19.3974 74.6039 20.2921C74.9872 21.1868 75.4983 21.9537 76.2011 22.6567C76.9039 23.2958 77.6706 23.871 78.565 24.1906C79.4595 24.574 80.4817 24.7657 81.504 24.7657Z" fill="#6B4F25"/>
<path d="M108.978 25.852C106.934 25.852 105.273 25.2768 104.059 24.0626C102.845 22.8483 102.27 21.0588 102.27 18.6303V8.97995H103.484V18.5663C103.484 20.6754 103.931 22.2092 104.89 23.2317C105.848 24.2543 107.19 24.7655 108.978 24.7655C110.767 24.7655 112.045 24.2543 113.004 23.2317C113.962 22.2092 114.409 20.6754 114.409 18.5663V8.97995H115.623V18.6303C115.623 20.9949 115.048 22.8483 113.834 24.0626C112.62 25.2768 111.023 25.852 108.915 25.852H108.978Z" fill="#6B4F25"/>
<path d="M128.849 14.1569V8.85247C128.849 8.66074 128.913 8.59682 129.104 8.59682H130.765C131.724 8.59682 132.426 8.85247 132.938 9.29983C133.449 9.7472 133.704 10.5141 133.704 11.5367C133.704 12.5592 133.449 13.3261 132.938 13.7735C132.426 14.2208 131.66 14.4765 130.765 14.4765H129.104C128.913 14.4765 128.849 14.4126 128.849 14.2208V14.1569ZM130.765 13.7735C131.468 13.7735 131.979 13.5818 132.363 13.2622C132.746 12.9427 132.938 12.3036 132.938 11.4727C132.938 10.6419 132.746 10.0667 132.363 9.68329C131.979 9.36374 131.468 9.17201 130.765 9.17201H129.615V13.7735H130.765Z" fill="#6B4F25"/>
<path d="M136.581 14.1569V8.85247C136.581 8.66074 136.644 8.59682 136.836 8.59682H140.414C140.478 8.59682 140.542 8.59682 140.606 8.59682C140.67 8.59682 140.606 8.66074 140.606 8.78855V8.91637C140.606 8.98028 140.606 9.04419 140.606 9.1081C140.606 9.1081 140.478 9.1081 140.414 9.1081H137.347V11.0893H139.647C139.711 11.0893 139.775 11.0893 139.839 11.0893C139.839 11.0893 139.839 11.2171 139.839 11.281V11.4088C139.839 11.4727 139.839 11.5367 139.839 11.6006C139.839 11.6006 139.711 11.6006 139.647 11.6006H137.347V13.5818H140.414C140.478 13.5818 140.542 13.5818 140.606 13.5818C140.67 13.5818 140.606 13.7096 140.606 13.7735V13.9013C140.606 13.9652 140.606 14.0291 140.606 14.093C140.606 14.1569 140.478 14.093 140.414 14.093H136.836C136.644 14.093 136.581 14.0291 136.581 13.8374V14.1569Z" fill="#6B4F25"/>
<path d="M143.479 14.1569V8.85247C143.479 8.66074 143.543 8.59682 143.735 8.59682H143.991C144.055 8.59682 144.118 8.59682 144.118 8.59682C144.118 8.59682 144.182 8.59683 144.246 8.72465L147.505 13.1983V8.85247C147.505 8.66074 147.568 8.59682 147.76 8.59682H148.016C148.08 8.59682 148.143 8.59683 148.207 8.66074C148.207 8.66074 148.207 8.78856 148.207 8.85247V14.1569C148.207 14.2209 148.207 14.2848 148.207 14.3487C148.207 14.3487 148.08 14.4126 148.016 14.4126H147.76H147.632C147.632 14.4126 147.568 14.4126 147.505 14.2848L144.246 9.81111V14.1569C144.246 14.2209 144.246 14.2848 144.246 14.3487C144.246 14.3487 144.118 14.4126 144.054 14.4126H143.799C143.607 14.4126 143.543 14.3487 143.543 14.1569H143.479Z" fill="#6B4F25"/>
<path d="M152.872 14.1569V9.17196H151.274C151.21 9.17196 151.146 9.17196 151.083 9.17196C151.019 9.17196 151.083 9.10804 151.083 8.98023V8.85241C151.083 8.7885 151.083 8.72459 151.083 8.66068C151.083 8.59677 151.21 8.66068 151.274 8.66068H155.235C155.299 8.66068 155.363 8.66068 155.427 8.66068C155.491 8.66068 155.427 8.7885 155.427 8.85241V8.98023C155.427 9.04413 155.427 9.10805 155.427 9.17196C155.427 9.23586 155.299 9.17196 155.235 9.17196H153.638V14.1569C153.638 14.2208 153.638 14.2847 153.638 14.3486C153.638 14.3486 153.51 14.4125 153.447 14.4125H153.191C152.999 14.4125 152.935 14.3486 152.935 14.1569H152.872Z" fill="#6B4F25"/>
<path d="M156.96 14.2847C156.96 14.2847 156.96 14.2847 156.96 14.2207L159.26 8.78845C159.26 8.72454 159.324 8.66064 159.324 8.66064C159.324 8.66064 159.388 8.66064 159.452 8.66064H159.771H159.899C159.899 8.66064 159.899 8.72454 159.963 8.78845L162.263 14.2207V14.2847C162.263 14.3486 162.263 14.4125 162.135 14.4125H161.688C161.624 14.4125 161.56 14.4125 161.56 14.4125C161.56 14.4125 161.56 14.4125 161.496 14.2847L160.921 12.8787H158.238L157.663 14.2847C157.663 14.2847 157.663 14.3486 157.599 14.4125C157.599 14.4125 157.535 14.4125 157.471 14.4125H157.024C156.96 14.4125 156.896 14.4125 156.896 14.2847H156.96ZM160.73 12.2396L159.644 9.61928L158.557 12.2396H160.73Z" fill="#6B4F25"/>
<path d="M165.265 14.1569V8.85247C165.265 8.66074 165.329 8.59682 165.521 8.59682H165.776C165.84 8.59682 165.904 8.59683 165.968 8.66074C165.968 8.66074 165.968 8.78856 165.968 8.85247V13.8374H168.779C168.843 13.8374 168.907 13.8374 168.971 13.8374C169.034 13.8374 168.971 13.9652 168.971 14.0291V14.1569C168.971 14.2209 168.971 14.2848 168.971 14.3487C168.971 14.4126 168.843 14.3487 168.779 14.3487H165.393C165.201 14.3487 165.137 14.2848 165.137 14.093L165.265 14.1569Z" fill="#6B4F25"/>
<path d="M177.789 14.029C177.406 13.7094 177.214 13.2621 177.214 12.7508C177.214 12.2395 177.278 12.1117 177.47 11.8561C177.598 11.6004 177.853 11.4087 178.173 11.2809C177.981 11.1531 177.789 11.0253 177.662 10.7696C177.534 10.5779 177.47 10.3223 177.47 10.0666C177.47 9.55535 177.662 9.10798 178.045 8.85235C178.428 8.59671 178.939 8.46889 179.578 8.46889C180.217 8.46889 180.345 8.46889 180.601 8.5967C180.856 8.66061 181.112 8.78844 181.303 8.98016C181.303 8.98016 181.367 9.04407 181.367 9.10798C181.367 9.17189 181.367 9.10798 181.367 9.17189L181.176 9.49144C181.176 9.49144 181.176 9.55534 181.112 9.55534C181.048 9.55534 181.112 9.55534 181.048 9.55534C180.856 9.42753 180.664 9.29971 180.473 9.2358C180.281 9.17189 179.962 9.10798 179.642 9.10798C179.323 9.10798 178.812 9.1719 178.556 9.36362C178.3 9.55535 178.173 9.74708 178.173 10.1305C178.173 10.514 178.3 10.7696 178.492 10.8974C178.684 11.0253 179.067 11.0892 179.514 11.0892H182.453C182.517 11.0892 182.581 11.0892 182.645 11.0892C182.645 11.0892 182.645 11.217 182.645 11.2809V11.4087C182.645 11.4726 182.645 11.5365 182.645 11.6004C182.645 11.6004 182.517 11.6004 182.453 11.6004H182.07V12.1117C182.07 12.8147 181.878 13.3899 181.495 13.8373C181.112 14.2846 180.473 14.5403 179.642 14.5403C178.812 14.5403 178.237 14.3485 177.853 14.029H177.789ZM180.92 13.4538C181.176 13.1343 181.303 12.6869 181.303 12.1117V11.6004H179.195C178.812 11.6004 178.492 11.6644 178.3 11.8561C178.109 12.0478 177.981 12.3034 177.981 12.6869C177.981 13.4538 178.556 13.9012 179.642 13.9012C180.728 13.9012 180.664 13.7734 180.92 13.4538Z" fill="#6B4F25"/>
<path d="M128.656 25.4048C128.656 25.4048 128.656 25.4048 128.656 25.3408L130.956 19.9086C130.956 19.8446 131.02 19.7807 131.02 19.7807C131.02 19.7807 131.084 19.7807 131.148 19.7807H131.467H131.595C131.595 19.7807 131.595 19.8446 131.659 19.9086L133.959 25.3408V25.4048C133.959 25.4687 133.959 25.5326 133.831 25.5326H133.384C133.32 25.5326 133.256 25.5326 133.256 25.5326C133.256 25.5326 133.256 25.5326 133.192 25.4048L132.617 23.9987H129.934L129.359 25.4048C129.359 25.4048 129.359 25.4687 129.295 25.5326C129.295 25.5326 129.231 25.5326 129.167 25.5326H128.72C128.656 25.5326 128.592 25.5326 128.592 25.4048H128.656ZM132.49 23.3597L131.403 20.7394L130.317 23.3597H132.49Z" fill="#6B4F25"/>
<path d="M136.963 25.277V19.9726C136.963 19.7808 137.027 19.7169 137.219 19.7169H140.797C140.861 19.7169 140.925 19.7169 140.988 19.7169C141.052 19.7169 140.988 19.7808 140.988 19.9087V20.0365C140.988 20.1004 140.988 20.1643 140.988 20.2282C140.988 20.2282 140.861 20.2282 140.797 20.2282H137.73V22.2094H140.03C140.094 22.2094 140.158 22.2094 140.222 22.2094C140.222 22.2094 140.222 22.3372 140.222 22.4011V22.5289C140.222 22.5928 140.222 22.6568 140.222 22.7207C140.222 22.7207 140.094 22.7207 140.03 22.7207H137.73V24.7019H140.797C140.861 24.7019 140.925 24.7019 140.988 24.7019C140.988 24.7019 140.988 24.8297 140.988 24.8936V25.0214C140.988 25.0853 140.988 25.1492 140.988 25.2131C140.988 25.277 140.861 25.2131 140.797 25.2131H137.219C137.027 25.2131 136.963 25.1492 136.963 24.9575V25.277Z" fill="#6B4F25"/>
<path d="M144.693 25.5325C144.31 25.4686 144.054 25.3408 143.799 25.213C143.799 25.213 143.735 25.1491 143.735 25.0852C143.735 25.0213 143.735 25.0852 143.735 25.0213L143.927 24.7017C143.927 24.7017 143.927 24.7017 143.99 24.7017C144.054 24.7017 143.99 24.7017 144.054 24.7017C144.246 24.8295 144.502 24.9574 144.821 25.0213C145.14 25.0852 145.396 25.1491 145.715 25.1491C146.163 25.1491 146.482 25.0852 146.738 24.8934C146.993 24.7656 147.057 24.51 147.057 24.1265C147.057 23.7431 147.057 23.7431 146.929 23.6153C146.865 23.4874 146.674 23.3596 146.482 23.2957C146.29 23.2318 145.971 23.104 145.588 22.9123C145.204 22.7844 144.885 22.6566 144.693 22.5288C144.438 22.401 144.246 22.2093 144.118 22.0175C143.99 21.8258 143.863 21.5063 143.863 21.1867C143.863 20.6754 144.054 20.292 144.438 20.0363C144.821 19.7807 145.268 19.589 145.907 19.589C146.546 19.589 147.185 19.7168 147.632 20.0363C147.632 20.0363 147.696 20.1003 147.696 20.1642C147.696 20.2281 147.696 20.1642 147.696 20.2281L147.504 20.5476C147.504 20.5476 147.504 20.6115 147.44 20.6115C147.377 20.6115 147.44 20.6115 147.377 20.6115C146.993 20.3559 146.546 20.2281 145.907 20.2281C145.268 20.2281 145.204 20.292 145.013 20.4837C144.821 20.6754 144.693 20.8672 144.693 21.2506C144.693 21.6341 144.693 21.6341 144.821 21.7619C144.885 21.8897 145.013 21.9536 145.14 22.0814C145.268 22.1454 145.524 22.2732 145.843 22.401L146.227 22.5288C146.61 22.7205 146.929 22.8483 147.185 22.9762C147.44 23.104 147.568 23.2957 147.696 23.4874C147.824 23.6792 147.888 23.9348 147.888 24.2544C147.888 24.7656 147.696 25.0852 147.377 25.4047C146.993 25.6604 146.482 25.7882 145.843 25.7882C145.204 25.7882 145.077 25.7882 144.757 25.6604L144.693 25.5325Z" fill="#6B4F25"/>
<path d="M152.041 25.277V20.2921H150.444C150.38 20.2921 150.316 20.2921 150.252 20.2921C150.188 20.2921 150.252 20.2281 150.252 20.1003V19.9725C150.252 19.9086 150.252 19.8447 150.252 19.7808C150.252 19.7169 150.38 19.7808 150.444 19.7808H154.405C154.469 19.7808 154.533 19.7808 154.597 19.7808C154.661 19.7808 154.597 19.9086 154.597 19.9725V20.1003C154.597 20.1642 154.597 20.2281 154.597 20.2921C154.597 20.356 154.469 20.2921 154.405 20.2921H152.808V25.277C152.808 25.3409 152.808 25.4048 152.808 25.4687C152.808 25.4687 152.68 25.5326 152.616 25.5326H152.361C152.169 25.5326 152.105 25.4687 152.105 25.277H152.041Z" fill="#6B4F25"/>
<path d="M157.408 25.277V19.9726C157.408 19.7808 157.472 19.7169 157.664 19.7169H157.919C157.983 19.7169 158.047 19.7169 158.111 19.7808C158.111 19.7808 158.111 19.9087 158.111 19.9726V22.2733H161.369V19.9726C161.369 19.7808 161.433 19.7169 161.625 19.7169H161.88C161.944 19.7169 162.008 19.7169 162.072 19.7808C162.072 19.7808 162.072 19.9087 162.072 19.9726V25.277C162.072 25.3409 162.072 25.4049 162.072 25.4688C162.072 25.4688 161.944 25.5327 161.88 25.5327H161.625C161.433 25.5327 161.369 25.4688 161.369 25.277V22.9124H158.111V25.277C158.111 25.3409 158.111 25.4049 158.111 25.4688C158.111 25.4688 157.983 25.5327 157.919 25.5327H157.664C157.472 25.5327 157.408 25.4688 157.408 25.277Z" fill="#6B4F25"/>
<path d="M165.267 25.277V19.9726C165.267 19.7808 165.331 19.7169 165.523 19.7169H169.101C169.165 19.7169 169.229 19.7169 169.292 19.7169C169.356 19.7169 169.292 19.7808 169.292 19.9087V20.0365C169.292 20.1004 169.292 20.1643 169.292 20.2282C169.292 20.2282 169.165 20.2282 169.101 20.2282H166.034V22.2094H168.334C168.398 22.2094 168.462 22.2094 168.526 22.2094C168.526 22.2094 168.526 22.3372 168.526 22.4011V22.5289C168.526 22.5928 168.526 22.6568 168.526 22.7207C168.526 22.7207 168.398 22.7207 168.334 22.7207H166.034V24.7019H169.101C169.165 24.7019 169.229 24.7019 169.292 24.7019C169.292 24.7019 169.292 24.8297 169.292 24.8936V25.0214C169.292 25.0853 169.292 25.1492 169.292 25.2131C169.292 25.277 169.165 25.2131 169.101 25.2131H165.523C165.331 25.2131 165.267 25.1492 165.267 24.9575V25.277Z" fill="#6B4F25"/>
<path d="M173.634 25.277V20.2921H172.037C171.973 20.2921 171.909 20.2921 171.846 20.2921C171.782 20.2921 171.846 20.2281 171.846 20.1003V19.9725C171.846 19.9086 171.846 19.8447 171.846 19.7808C171.846 19.7169 171.973 19.7808 172.037 19.7808H175.998C176.062 19.7808 176.126 19.7808 176.19 19.7808C176.254 19.7808 176.19 19.9086 176.19 19.9725V20.1003C176.19 20.1642 176.19 20.2281 176.19 20.2921C176.19 20.356 176.062 20.2921 175.998 20.2921H174.401V25.277C174.401 25.3409 174.401 25.4048 174.401 25.4687C174.401 25.4687 174.273 25.5326 174.209 25.5326H173.954C173.762 25.5326 173.698 25.4687 173.698 25.277H173.634Z" fill="#6B4F25"/>
<path d="M178.938 25.277V19.9726C178.938 19.7808 179.002 19.7169 179.193 19.7169H179.449C179.513 19.7169 179.577 19.7169 179.641 19.7808C179.641 19.7808 179.641 19.9087 179.641 19.9726V25.277C179.641 25.3409 179.641 25.4049 179.641 25.4688C179.641 25.4688 179.513 25.5327 179.449 25.5327H179.193C179.002 25.5327 178.938 25.4688 178.938 25.277Z" fill="#6B4F25"/>
<path d="M183.41 24.8295C182.899 24.3183 182.644 23.5514 182.644 22.5927C182.644 21.6341 182.899 20.8672 183.41 20.3559C183.922 19.8446 184.688 19.589 185.583 19.589C186.477 19.589 186.286 19.589 186.605 19.7168C186.924 19.7807 187.18 19.9085 187.436 20.0363C187.436 20.0363 187.499 20.0363 187.499 20.1002C187.499 20.1642 187.499 20.1003 187.499 20.1642L187.308 20.4837C187.308 20.4837 187.308 20.5476 187.244 20.5476C187.18 20.5476 187.244 20.5476 187.18 20.5476C186.988 20.4198 186.797 20.3559 186.541 20.292C186.286 20.2281 186.03 20.1642 185.711 20.1642C185.008 20.1642 184.433 20.3559 184.049 20.7393C183.666 21.1228 183.474 21.7619 183.474 22.5927C183.474 23.4235 183.666 24.0626 184.113 24.4461C184.56 24.8295 185.072 25.0213 185.774 25.0213C186.477 25.0213 186.413 25.0213 186.669 24.9574C186.924 24.9574 187.116 24.8295 187.372 24.7017C187.372 24.7017 187.372 24.7017 187.436 24.7017C187.499 24.7017 187.436 24.7017 187.499 24.7017L187.691 25.0213C187.691 25.0213 187.691 25.0213 187.691 25.0852C187.691 25.0852 187.691 25.0852 187.627 25.0852C187.18 25.4047 186.541 25.5325 185.711 25.5325C184.88 25.5325 184.049 25.2769 183.538 24.7656L183.41 24.8295Z" fill="#6B4F25"/>
<path d="M191.331 25.5325C190.948 25.4686 190.693 25.3408 190.437 25.213C190.437 25.213 190.373 25.1491 190.373 25.0852C190.373 25.0213 190.373 25.0852 190.373 25.0213L190.565 24.7017C190.565 24.7017 190.565 24.7017 190.629 24.7017C190.693 24.7017 190.629 24.7017 190.692 24.7017C190.884 24.8295 191.14 24.9574 191.459 25.0213C191.779 25.0852 192.034 25.1491 192.354 25.1491C192.801 25.1491 193.12 25.0852 193.376 24.8934C193.631 24.7656 193.695 24.51 193.695 24.1265C193.695 23.7431 193.695 23.7431 193.568 23.6153C193.504 23.4874 193.312 23.3596 193.12 23.2957C192.929 23.2318 192.609 23.104 192.226 22.9123C191.843 22.7844 191.523 22.6566 191.331 22.5288C191.076 22.401 190.884 22.2093 190.756 22.0175C190.565 21.8258 190.501 21.5063 190.501 21.1867C190.501 20.6754 190.693 20.292 191.076 20.0363C191.459 19.7807 191.906 19.589 192.545 19.589C193.184 19.589 193.823 19.7168 194.27 20.0363C194.27 20.0363 194.334 20.1003 194.334 20.1642C194.334 20.2281 194.334 20.1642 194.334 20.2281L194.143 20.5476C194.143 20.5476 194.143 20.6115 194.079 20.6115C194.015 20.6115 194.079 20.6115 194.015 20.6115C193.631 20.3559 193.184 20.2281 192.545 20.2281C191.906 20.2281 191.843 20.292 191.651 20.4837C191.459 20.6754 191.331 20.8672 191.331 21.2506C191.331 21.6341 191.331 21.6341 191.459 21.7619C191.523 21.8897 191.651 21.9536 191.779 22.0814C191.906 22.1454 192.162 22.2732 192.481 22.401L192.865 22.5288C193.248 22.7205 193.568 22.8483 193.823 22.9762C194.079 23.104 194.206 23.2957 194.334 23.4874C194.462 23.6792 194.526 23.9348 194.526 24.2544C194.526 24.7656 194.334 25.0852 194.015 25.4047C193.631 25.6604 193.12 25.7882 192.481 25.7882C191.843 25.7882 191.715 25.7882 191.395 25.6604L191.331 25.5325Z" fill="#6B4F25"/>
<path d="M35.2489 14.8598C34.6738 13.7094 35.76 11.92 35.8878 10.3222C35.8878 9.87487 35.9516 9.4275 36.0155 8.98014C36.1433 7.3824 36.2711 5.72076 35.8239 4.12303C35.4405 2.65312 34.4822 1.43884 33.0766 0.799742C31.7988 0.160649 30.7127 0.0328313 29.371 0.0967407C28.8599 0.0967407 28.0293 0.28847 27.5182 0.352379C26.7515 0.544107 25.9848 0.735834 25.282 1.05538C23.3653 1.82229 21.4486 2.78093 19.3403 2.97266C19.1486 2.97266 18.9569 2.97266 18.7014 2.97266C18.5097 2.97266 18.318 2.97266 18.0625 2.97266C16.018 2.78093 14.0374 1.75838 12.1207 1.05538C10.204 0.288469 8.22342 -0.222806 6.17894 0.0967407C2.40943 0.671924 0.68441 4.50649 0.17329 7.95759C-0.210049 10.4501 0.1094 13.0064 0.49274 15.4989C0.939969 18.3748 1.70664 21.1868 2.66499 23.9349C3.49556 26.2996 4.58169 28.7281 6.11505 30.7732C7.13728 32.1153 8.54287 33.2657 10.3318 32.9461C11.6735 32.6905 12.6957 31.6679 13.4624 30.5815C14.4207 29.2394 15.1235 27.7056 15.7624 26.1717C17.4236 22.3372 18.6375 18.6304 20.8736 14.9876C21.1292 14.5402 21.4486 14.1568 21.7042 13.7094C21.7681 13.5816 21.832 13.5177 21.8959 13.3899C21.8959 13.3899 21.9598 13.2621 22.0236 13.2621C22.0236 13.2621 22.0236 13.2621 22.0236 13.1982C22.1514 13.0064 22.3431 12.8147 22.4709 12.623C22.7264 12.3034 22.8542 11.7282 22.4709 11.4726C22.1514 11.217 21.7042 11.4087 21.4486 11.6004C19.9153 13.5177 18.4458 16.2019 17.2958 18.5665C16.0819 15.9463 14.4846 12.7508 12.6957 10.514C12.4401 10.3222 11.9929 10.1305 11.6735 10.3861C11.2262 10.7057 11.4179 11.217 11.6735 11.5365C11.8013 11.7282 11.9929 11.92 12.1207 12.1117C12.1207 12.1117 12.1207 12.1117 12.1207 12.1756C12.1207 12.1756 12.1846 12.3034 12.2485 12.3034C12.3124 12.4312 12.3763 12.4951 12.4402 12.623C12.7596 13.0064 13.0152 13.4538 13.2707 13.9012C14.5485 16.0102 15.5069 18.1192 16.4013 20.2921H16.4652C15.443 22.5289 14.868 24.2545 14.8041 24.4462C14.7402 24.6379 14.6124 24.8296 14.5485 25.0853C14.5485 25.0853 14.4846 25.277 14.4207 25.3409C14.4207 25.4048 14.3568 25.5326 14.293 25.5966C14.1013 25.98 13.9096 26.4274 13.718 26.8108C13.3985 27.5138 13.0152 28.2807 12.6318 28.9198C12.4402 29.2394 12.2485 29.495 12.0568 29.8146C12.0568 29.8785 11.9929 29.9424 11.929 30.0063C11.929 30.0063 11.929 30.0063 11.8651 30.0702C11.7374 30.198 11.6735 30.3259 11.5457 30.4537C11.4179 30.5815 11.354 30.6454 11.2262 30.7732C11.2262 30.7732 11.0985 30.901 11.0346 30.901C10.8429 31.0289 10.5873 31.1567 10.3957 31.2845C10.3957 31.2845 10.2679 31.2845 10.204 31.2845C10.1401 31.2845 10.0123 31.2845 9.94844 31.2845C9.94844 31.2845 9.82067 31.2845 9.75678 31.2845C9.75678 31.2845 9.629 31.2845 9.56511 31.2845C9.50122 31.2845 9.43732 31.2845 9.37344 31.2845C9.62899 31.2845 9.37344 31.2845 9.24566 31.2845C9.18177 31.2845 9.11788 31.2845 9.05399 31.2845C8.86232 31.2206 8.73454 31.0928 8.60676 31.0289C8.60676 31.0289 8.54287 31.0288 8.47898 30.9649C8.41509 30.9649 8.3512 30.8371 8.28731 30.7732C8.09564 30.6454 7.96786 30.4537 7.77619 30.3258C7.64841 30.198 7.52063 30.0063 7.32896 29.8146C7.32896 29.8146 7.32896 29.8146 7.26507 29.7507C7.26507 29.7507 7.26507 29.6868 7.20118 29.6228C7.13729 29.495 7.0734 29.4311 6.94562 29.3033C6.62617 28.8559 6.30672 28.3447 6.05116 27.8973C4.77336 25.5966 3.8789 23.168 3.17611 20.6116C2.40944 17.9913 1.83442 15.3072 1.64275 12.6869C1.51497 11.5365 1.51498 10.3222 1.57887 9.17187C1.57887 8.91623 1.57886 8.66059 1.64275 8.40496C1.64275 8.40496 1.64275 8.34104 1.64275 8.27713C1.64275 8.14931 1.64275 7.95759 1.70664 7.82977C1.89831 6.99895 2.08998 6.16813 2.34554 5.40122C2.92055 3.9313 3.8789 2.46139 5.34837 1.8862C7.13729 1.1832 9.11788 1.63057 10.8429 2.20575C12.7596 2.90875 14.6124 3.86739 16.6569 4.31475C17.2958 4.44257 17.9347 4.50648 18.6375 4.50648C19.2764 4.50648 19.9153 4.44257 20.6181 4.31475C22.6625 3.86739 24.4515 2.90875 26.432 2.20575C28.1571 1.63057 30.0099 1.24711 31.7349 1.95011C32.9488 2.39748 33.5238 3.29221 33.9711 4.50648C34.8655 7.31849 34.2266 10.5779 34.2266 10.6418C34.0349 11.8561 33.2683 14.2846 33.8433 15.3711C34.0988 15.8823 34.9933 18.5026 34.9933 19.3334C34.9933 19.653 34.9294 19.9086 34.61 20.1004C34.0349 20.4199 33.3322 20.4199 32.7571 20.8673C31.6071 21.762 32.6294 23.3597 32.6294 23.6793C32.6294 23.9988 32.246 24.5101 31.7349 24.6379C31.2877 24.7657 30.521 25.1492 31.0321 25.7883C31.6071 26.4274 31.3516 26.8108 30.8405 27.1304C30.3293 27.4499 30.1377 28.089 30.3932 28.6642C30.6488 29.2394 30.3293 30.5176 29.7543 30.901C29.1154 31.3484 27.0709 31.7319 25.2181 29.8785C23.3653 27.8334 21.8959 25.3409 21.0653 23.871C20.9375 23.6154 20.6819 23.1041 20.0431 23.2319C19.468 23.2958 19.468 23.9349 19.6597 24.2545C20.5542 26.0439 22.5348 29.0477 23.8126 30.4537C24.2598 30.9649 24.707 31.4123 25.2181 31.7958C25.2181 31.7958 26.7515 33.1379 29.1154 32.8183C31.4155 32.4988 31.9266 30.5176 32.1183 28.9198C32.1821 28.2807 32.5655 27.5138 32.9488 27.2582C33.3322 27.0026 33.1405 25.98 32.8849 25.7244C32.6294 25.4687 34.4183 24.6379 34.2266 24.0627C34.0349 23.4876 33.8433 23.2319 33.6516 22.6567C33.5238 22.4011 33.4599 21.6981 33.8433 21.6342C34.0988 21.5064 34.4183 21.4424 34.61 21.3785C35.6322 21.059 36.2711 20.356 36.2072 19.2695C36.1433 18.3109 35.3127 15.4989 35.0572 14.9237L35.2489 14.8598Z" fill="#6B4F25"/>
</svg>
